<?xml version="1.0" encoding="utf-8"?>
<!-- Generator: Adobe Illustrator 17.1.0, SVG Export Plug-In . SVG Version: 6.00 Build 0)  -->
<!DOCTYPE svg PUBLIC "-//W3C//DTD SVG 1.1//EN" "http://www.w3.org/Graphics/SVG/1.1/DTD/svg11.dtd">
<svg version="1.1" id="Layer_1" xmlns="http://www.w3.org/2000/svg" xmlns:xlink="http://www.w3.org/1999/xlink" x="0px" y="0px"
	 viewBox="0 0 520.4 314" enable-background="new 0 0 520.4 314" xml:space="preserve">
<path fill="#9FA5AA" d="M431.7,30.1c-3.4-3.4-7.4-5.1-12.2-5.4c-0.3,0-0.6,0-1,0c-4.1,0-7.4,1.4-10.4,4.3l-173,173L62.3,29.1
	c-3-3-6.3-4.3-10.4-4.3c-0.3,0-0.6,0-1,0c-4.9,0.2-8.9,2-12.2,5.4L15,53.8c-3.3,3.3-4.8,7-4.8,11.8s1.5,8.5,4.8,11.8l208.6,208.6
	l0.2,0.2c3.3,3.7,6.9,5.5,11.4,5.5c4.5,0,8.1-1.7,11.4-5.5l0.4-0.4L455.4,77.4c3.3-3.3,4.8-7.1,4.8-11.8c0-4.7-1.5-8.5-4.8-11.8
	L431.7,30.1z"/>
</svg>
