<?xml version="1.0" encoding="utf-8"?>
<!-- Generator: Adobe Illustrator 17.1.0, SVG Export Plug-In . SVG Version: 6.00 Build 0)  -->
<!DOCTYPE svg PUBLIC "-//W3C//DTD SVG 1.1//EN" "http://www.w3.org/Graphics/SVG/1.1/DTD/svg11.dtd">
<svg version="1.1" id="Layer_1" xmlns="http://www.w3.org/2000/svg" xmlns:xlink="http://www.w3.org/1999/xlink" x="0px" y="0px"
	 viewBox="0 0 520.4 314" enable-background="new 0 0 520.4 314" xml:space="preserve">
<path fill="#FFFFFF" d="M475.1,18.2c-3.7-3.7-8.1-5.6-13.4-5.9c-0.4,0-0.7,0-1.1,0c-4.5,0-8.1,1.5-11.3,4.7L260.2,206.1L71.1,17
	c-3.2-3.2-6.8-4.7-11.3-4.7c-0.3,0-0.7,0-1,0c-5.3,0.3-9.7,2.2-13.4,5.9L19.5,44c-3.6,3.6-5.3,7.7-5.3,12.9s1.7,9.3,5.3,12.9
	l228.1,228.1l0.2,0.3c3.6,4.1,7.5,6,12.4,6c4.9,0,8.9-1.9,12.4-6l0.5-0.5L500.9,69.8c3.6-3.6,5.3-7.7,5.3-12.9
	c0-5.2-1.7-9.3-5.3-12.9L475.1,18.2z"/>
</svg>
